<?xml version="1.0" standalone="no"?>
<!DOCTYPE svg PUBLIC "-//W3C//DTD SVG 20010904//EN"
 "http://www.w3.org/TR/2001/REC-SVG-20010904/DTD/svg10.dtd">
<svg version="1.0" xmlns="http://www.w3.org/2000/svg"
 width="720.000000pt" height="720.000000pt" viewBox="0 0 720.000000 720.000000"
 preserveAspectRatio="xMidYMid meet">
<metadata>
Created by potrace 1.11, written by Peter Selinger 2001-2013
</metadata>
<g transform="translate(0.000000,720.000000) scale(0.100000,-0.100000)"
fill="#000000" stroke="none">
<path d="M3818 7153 c-125 -164 -269 -455 -395 -793 -73 -199 -205 -606 -219
-679 -3 -14 -7 -28 -10 -33 -3 -4 -7 -16 -9 -25 -3 -10 -38 -148 -80 -308 -41
-159 -78 -303 -81 -320 -3 -16 -11 -55 -19 -85 -8 -30 -30 -131 -50 -225 -20
-93 -38 -177 -40 -185 -5 -24 -84 -432 -89 -460 -2 -14 -7 -36 -10 -50 -3 -14
-8 -41 -10 -60 -3 -19 -10 -60 -16 -90 -6 -30 -13 -73 -16 -95 -4 -22 -11 -67
-18 -100 l-12 -60 -38 100 c-79 205 -148 381 -161 410 -7 17 -25 62 -40 100
-15 39 -35 88 -45 110 -10 22 -35 80 -55 129 -20 49 -41 96 -45 105 -8 14 -24
50 -77 171 -9 19 -66 136 -128 260 -95 191 -150 291 -285 526 -42 73 -129 208
-208 324 -74 108 -96 139 -140 195 -5 6 -14 19 -20 30 -15 25 -15 10 -2 -70 5
-33 12 -85 14 -115 3 -30 8 -76 11 -102 6 -46 9 -81 22 -263 9 -130 9 -571 -1
-705 -8 -122 -13 -166 -32 -320 -13 -103 -56 -345 -68 -381 -3 -8 -7 -27 -10
-44 -2 -16 -18 -86 -36 -155 -43 -173 -54 -213 -83 -310 -49 -163 -156 -537
-161 -561 -3 -13 -7 -33 -10 -44 -16 -67 -55 -269 -62 -320 -9 -74 -10 -389
-2 -470 4 -33 12 -82 17 -110 6 -27 13 -61 15 -75 18 -109 95 -335 173 -510
87 -196 283 -539 371 -650 139 -174 374 -307 647 -366 11 -2 31 -6 45 -9 14
-3 45 -10 70 -15 25 -5 54 -11 65 -14 11 -2 56 -9 100 -16 44 -7 87 -13 95
-15 8 -2 38 -6 65 -9 52 -7 66 -9 175 -26 36 -5 85 -12 110 -15 24 -3 92 -17
150 -30 88 -21 145 -36 310 -79 8 -2 42 -12 75 -22 33 -10 62 -18 65 -19 56
-10 208 -85 235 -115 11 -12 41 -37 67 -57 l48 -35 72 46 c40 24 98 54 128 66
48 19 508 244 550 270 8 5 51 30 95 57 312 187 560 424 703 673 63 110 166
367 186 465 3 11 11 49 20 85 8 36 17 83 21 105 3 23 7 51 10 64 25 132 22
503 -5 641 -5 25 -11 59 -14 75 -21 129 -45 192 -239 625 -13 30 -41 96 -61
145 -21 50 -44 104 -51 120 -23 52 -113 326 -134 410 -92 366 -107 659 -50
995 19 115 29 154 76 305 48 153 196 472 248 535 6 8 14 22 17 30 6 15 175
260 187 270 3 3 19 23 36 45 16 22 31 42 35 45 3 3 30 34 60 69 63 75 85 98
183 199 40 40 62 69 51 65 -22 -8 -292 -162 -309 -176 -5 -4 -63 -44 -129 -88
-106 -71 -259 -188 -340 -259 -151 -132 -343 -325 -436 -440 -25 -30 -48 -57
-51 -60 -6 -5 -98 -124 -132 -171 -49 -67 -127 -180 -127 -183 0 -2 -26 -46
-59 -97 -93 -151 -235 -422 -291 -561 -13 -32 -26 -58 -29 -58 -18 0 -230 717
-257 870 -3 14 -11 52 -18 85 -27 115 -55 269 -71 380 -3 23 -7 52 -10 65 -7
34 -14 86 -20 150 -3 30 -8 66 -10 80 -2 14 -7 66 -10 115 -4 50 -9 108 -11
130 -5 60 -6 503 0 560 2 28 7 83 11 122 3 40 8 82 10 94 2 12 7 46 11 75 3
30 12 79 19 109 7 30 12 55 11 55 -1 0 -18 -21 -38 -47z"/>
</g>
</svg>
